<svg xmlns="http://www.w3.org/2000/svg" width="64" height="64" viewBox="0 0 64 64" fill="none">
  <defs>
    <radialGradient id="fav-bg" cx="50%" cy="40%" r="72%">
      <stop offset="0%" stop-color="#2A1B0E"/>
      <stop offset="70%" stop-color="#140F0A"/>
      <stop offset="100%" stop-color="#0A0806"/>
    </radialGradient>
    <linearGradient id="fav-body" x1="0.2" y1="0.05" x2="0.75" y2="1">
      <stop offset="0%" stop-color="#FFD23F"/>
      <stop offset="42%" stop-color="#F0B05A"/>
      <stop offset="78%" stop-color="#E8893B"/>
      <stop offset="100%" stop-color="#C2541E"/>
    </linearGradient>
  </defs>
  <rect width="64" height="64" rx="14" fill="url(#fav-bg)"/>
  <g transform="translate(11.5 8) scale(0.73)">
    <path d="M31 3 C 39 15, 47 25, 44 40 C 41.5 52.5, 30 60, 19.5 55.5 C 11 51.8, 8.5 41.5, 14.5 35.5 C 19.5 30.5, 27 32, 27.5 39.5 C 30.5 37, 31 30.5, 26.5 26 C 34.5 21, 33.5 12, 31 3 Z" fill="url(#fav-body)"/>
    <path d="M33 9 C 39 18, 43.5 26, 41.5 36" stroke="#FFF3D8" stroke-opacity="0.55" stroke-width="2" stroke-linecap="round" fill="none"/>
  </g>
</svg>
